<svg xmlns="http://www.w3.org/2000/svg" width="14.342" height="13.744" viewBox="0 0 14.342 13.744">
  <g id="paper-plane" transform="translate(0 0)">
    <path id="Path_16" data-name="Path 16" d="M8.75,17.612v2.772a.448.448,0,0,0,.809.265l1.621-2.206Z" transform="translate(-3.521 -7.088)" fill="#fff"/>
    <path id="Path_17" data-name="Path 17" d="M14.154.083a.448.448,0,0,0-.467-.032L.241,7.072A.448.448,0,0,0,.3,7.894L4.041,9.172,12,2.365,5.841,9.786l6.264,2.141a.459.459,0,0,0,.145.024.448.448,0,0,0,.443-.382L14.337.514a.449.449,0,0,0-.183-.431Z" fill="#fff"/>
  </g>
</svg>
