<svg xmlns="http://www.w3.org/2000/svg" width="11.114" height="13.679" viewBox="0 0 11.114 13.679">
  <g id="trash" transform="translate(-48)">
    <path id="Path_36" data-name="Path 36" d="M58.046,1.71H55.695V1.282A1.284,1.284,0,0,0,54.412,0H52.7A1.284,1.284,0,0,0,51.42,1.282V1.71H49.069A1.07,1.07,0,0,0,48,2.779v1.5a.427.427,0,0,0,.427.427h.234l.369,7.756a1.281,1.281,0,0,0,1.281,1.221H56.8a1.281,1.281,0,0,0,1.281-1.221L58.453,4.7h.234a.427.427,0,0,0,.427-.427v-1.5A1.07,1.07,0,0,0,58.046,1.71Zm-5.771-.427A.428.428,0,0,1,52.7.855h1.71a.428.428,0,0,1,.427.427V1.71H52.275Zm-3.42,1.5a.214.214,0,0,1,.214-.214h8.977a.214.214,0,0,1,.214.214V3.847h-9.4Zm8.375,9.639a.427.427,0,0,1-.427.407H50.311a.427.427,0,0,1-.427-.407L49.517,4.7H57.6Z" fill="#262626"/>
    <path id="Path_37" data-name="Path 37" d="M240.427,214.412a.427.427,0,0,0,.427-.427v-5.557a.427.427,0,1,0-.855,0v5.557A.427.427,0,0,0,240.427,214.412Z" transform="translate(-186.87 -202.443)" fill="#262626"/>
    <path id="Path_38" data-name="Path 38" d="M320.427,214.412a.427.427,0,0,0,.427-.427v-5.557a.427.427,0,0,0-.855,0v5.557A.427.427,0,0,0,320.427,214.412Z" transform="translate(-264.733 -202.443)" fill="#262626"/>
    <path id="Path_39" data-name="Path 39" d="M160.427,214.412a.427.427,0,0,0,.427-.427v-5.557a.427.427,0,1,0-.855,0v5.557A.427.427,0,0,0,160.427,214.412Z" transform="translate(-109.008 -202.443)" fill="#262626"/>
  </g>
</svg>
