<svg xmlns="http://www.w3.org/2000/svg" width="18.063" height="13.143" viewBox="0 0 18.063 13.143">
  <g id="cloud-computing" transform="translate(-498.915 -66.413)">
    <g id="Group_66" data-name="Group 66" transform="translate(496.915 -0.237)">
      <path id="Path_43" data-name="Path 43" d="M14.114,79.793H10.238V75.877h1.281a.4.4,0,0,0,.325-.635L9.353,71.8a.4.4,0,0,0-.646,0L6.215,75.242a.4.4,0,0,0,.325.635H7.821v3.916H3.48A3.882,3.882,0,0,1,0,75.91a3.677,3.677,0,0,1,1.823-3.174,2.465,2.465,0,0,1-.151-.86,2.5,2.5,0,0,1,2.5-2.5,2.459,2.459,0,0,1,.856.151,5.01,5.01,0,0,1,9.519,1.653,4.358,4.358,0,0,1-.436,8.614Z" transform="translate(2)" fill="#fff"/>
    </g>
  </g>
</svg>
