<?xml version="1.0" standalone="no"?>
<!DOCTYPE svg PUBLIC "-//W3C//DTD SVG 20010904//EN"
 "http://www.w3.org/TR/2001/REC-SVG-20010904/DTD/svg10.dtd">
<svg version="1.0" xmlns="http://www.w3.org/2000/svg"
 width="1151.000000pt" height="1151.000000pt" viewBox="0 0 1151.000000 1151.000000"
 preserveAspectRatio="xMidYMid meet">
<metadata>
Created by potrace 1.14, written by Peter Selinger 2001-2017
</metadata>
<g transform="translate(0.000000,1151.000000) scale(0.100000,-0.100000)"
fill="#000000" stroke="none">
<path d="M11014 11483 c-49 -13 -105 -28 -124 -33 -19 -5 -91 -25 -160 -45
-69 -20 -132 -38 -140 -40 -21 -5 -754 -207 -960 -265 -147 -42 -326 -91 -344
-95 -11 -3 -60 -16 -110 -30 -156 -45 -186 -53 -376 -105 -102 -28 -210 -58
-240 -67 -30 -9 -59 -17 -65 -19 -76 -16 -423 -118 -434 -127 -8 -7 -644 -641
-1413 -1410 l-1398 -1399 -72 12 c-217 34 -507 30 -713 -10 -27 -5 -66 -12
-85 -15 -65 -10 -294 -74 -400 -110 -523 -181 -1090 -511 -1650 -959 -115 -92
-174 -140 -185 -152 -5 -6 -41 -37 -80 -70 -208 -177 -482 -442 -468 -454 4
-4 139 -52 298 -108 160 -55 478 -166 708 -246 l419 -146 441 -441 440 -441
-674 -672 c-722 -720 -730 -727 -949 -844 -52 -27 -138 -66 -190 -87 -52 -20
-104 -40 -115 -45 -48 -22 -387 -117 -475 -134 -14 -2 -59 -12 -100 -21 -41
-9 -86 -18 -100 -21 -14 -2 -36 -7 -50 -10 -14 -3 -36 -8 -50 -10 -14 -2 -36
-7 -50 -10 -14 -3 -38 -8 -55 -11 -16 -3 -97 -20 -180 -39 -424 -98 -597 -174
-769 -340 l-86 -83 1186 -1187 1187 -1186 69 69 c90 88 127 140 182 249 62
123 136 362 170 544 9 49 56 286 62 310 3 14 6 34 8 45 11 69 63 310 91 420
86 336 181 565 323 780 58 89 141 175 735 772 l670 672 388 -388 c290 -291
390 -396 397 -422 6 -19 42 -124 80 -234 39 -110 82 -236 97 -280 15 -44 31
-89 36 -100 4 -11 26 -72 47 -135 50 -144 188 -539 211 -603 l17 -48 130 134
c71 73 163 171 204 217 41 46 82 91 90 99 214 231 586 733 772 1041 128 212
273 491 328 629 11 30 30 74 40 97 24 51 131 364 125 364 -2 0 2 18 10 40 8
22 14 41 13 43 0 1 8 43 20 92 11 50 23 112 27 139 3 27 8 52 10 55 7 13 19
211 19 331 0 116 -5 197 -20 311 l-6 45 1415 1415 1415 1415 62 225 c34 123
75 271 92 329 16 58 31 113 33 123 2 9 29 106 59 215 116 412 137 488 141 505
2 10 7 27 10 37 3 10 8 27 10 37 2 10 33 122 69 248 37 127 68 239 70 250 2
11 12 47 22 80 10 33 19 65 20 70 2 12 99 357 113 403 5 17 8 32 5 32 -3 0 0
8 5 18 6 11 12 30 15 43 3 13 28 107 57 209 72 253 72 317 -3 427 -16 23 -48
55 -71 71 -88 61 -172 70 -303 35z"/>
</g>
</svg>
